<svg xmlns="http://www.w3.org/2000/svg" width="47" height="47" viewBox="0 0 47 47">
  <metadata><?xpacket begin="﻿" id="W5M0MpCehiHzreSzNTczkc9d"?>
<x:xmpmeta xmlns:x="adobe:ns:meta/" x:xmptk="Adobe XMP Core 5.6-c138 79.159824, 2016/09/14-01:09:01        ">
   <rdf:RDF xmlns:rdf="http://www.w3.org/1999/02/22-rdf-syntax-ns#">
      <rdf:Description rdf:about=""/>
   </rdf:RDF>
</x:xmpmeta>
                                                                                                    
                                                                                                    
                                                                                                    
                                                                                                    
                                                                                                    
                                                                                                    
                                                                                                    
                                                                                                    
                                                                                                    
                                                                                                    
                                                                                                    
                                                                                                    
                                                                                                    
                                                                                                    
                                                                                                    
                                                                                                    
                                                                                                    
                                                                                                    
                                                                                                    
                                                                                                    
                           
<?xpacket end="w"?></metadata>
<defs>
    <style>
      .cls-1 {
        fill: #9e9e9e;
        fill-rule: evenodd;
      }
    </style>
  </defs>
  <path id="icon" class="cls-1" d="M599.016,1667.99H583.01v-2h16.006v2Zm0,6H583.01v-2h16.006v2Zm0,6.01H583.01v-2h16.006v2Zm0,6h-29v-2h29v2Zm0,6h-29v-2h29v2ZM579,1666.99a1,1,0,0,1,1,1v9a1,1,0,0,1-1,1h-7a1,1,0,0,1-1-1v-9a1,1,0,0,1,1-1h7m0-1h-7a2,2,0,0,0-2,2v9a2,2,0,0,0,2,2h7a2,2,0,0,0,2-2v-9a2,2,0,0,0-2-2h0Zm5.5,37.01a23.5,23.5,0,1,1,23.5-23.5A23.525,23.525,0,0,1,584.5,1703Zm0-46a22.5,22.5,0,1,0,22.5,22.5A22.524,22.524,0,0,0,584.5,1657Z" transform="translate(-561 -1656)"/>
</svg>
