<svg xmlns="http://www.w3.org/2000/svg" width="47" height="47" viewBox="0 0 47 47">
  <metadata><?xpacket begin="﻿" id="W5M0MpCehiHzreSzNTczkc9d"?>
<x:xmpmeta xmlns:x="adobe:ns:meta/" x:xmptk="Adobe XMP Core 5.6-c138 79.159824, 2016/09/14-01:09:01        ">
   <rdf:RDF xmlns:rdf="http://www.w3.org/1999/02/22-rdf-syntax-ns#">
      <rdf:Description rdf:about=""/>
   </rdf:RDF>
</x:xmpmeta>
                                                                                                    
                                                                                                    
                                                                                                    
                                                                                                    
                                                                                                    
                                                                                                    
                                                                                                    
                                                                                                    
                                                                                                    
                                                                                                    
                                                                                                    
                                                                                                    
                                                                                                    
                                                                                                    
                                                                                                    
                                                                                                    
                                                                                                    
                                                                                                    
                                                                                                    
                                                                                                    
                           
<?xpacket end="w"?></metadata>
<defs>
    <style>
      .cls-1 {
        fill: #9e9e9e;
        fill-rule: evenodd;
      }
    </style>
  </defs>
  <path id="icon" class="cls-1" d="M592.847,344.311l-20.5,1.7c-0.014,0-.026.008-0.04,0.008h-0.136A1.151,1.151,0,0,0,571,347.151v25.721A1.15,1.15,0,0,0,572.172,374h0.136c0.014,0,.026.008,0.04,0.008l0.091-.008H591.3a1.15,1.15,0,0,0,1.169-1.131v-0.528l0.378-.032a1.141,1.141,0,0,0,1.147-1.133V345.444A1.141,1.141,0,0,0,592.847,344.311Zm-1.9,28.561a0.135,0.135,0,0,1-.146.12H572.172a0.135,0.135,0,0,1-.146-0.12V347.151a0.137,0.137,0,0,1,.146-0.122H590.8a0.137,0.137,0,0,1,.146.122v25.721Zm2.025-1.693a0.124,0.124,0,0,1-.124.122H592.8l-0.045,0-0.788.025V347.151a1.151,1.151,0,0,0-1.169-1.132h-5.9l7.971-.695a0.123,0.123,0,0,1,.1.12v25.735Zm-6.1-4.178H576.136a1.166,1.166,0,0,0-1.131,1.2v0.6a1.165,1.165,0,0,0,1.131,1.2h10.739a1.165,1.165,0,0,0,1.131-1.2v-0.6A1.166,1.166,0,0,0,586.875,367Zm0.131,1.8a0.183,0.183,0,0,1-.131.2H576.136a0.182,0.182,0,0,1-.131-0.2v-0.6a0.181,0.181,0,0,1,.131-0.2h10.739a0.181,0.181,0,0,1,.131.2v0.6ZM581.5,363a6.5,6.5,0,1,1,6.5-6.5A6.5,6.5,0,0,1,581.5,363Zm0-12a5.5,5.5,0,1,0,5.5,5.5A5.5,5.5,0,0,0,581.5,351Zm1,32A23.5,23.5,0,1,1,606,359.5,23.527,23.527,0,0,1,582.5,383Zm0-46A22.5,22.5,0,1,0,605,359.5,22.526,22.526,0,0,0,582.5,337Z" transform="translate(-559 -336)"/>
</svg>
