<svg xmlns="http://www.w3.org/2000/svg" width="47" height="47" viewBox="0 0 47 47">
  <metadata><?xpacket begin="﻿" id="W5M0MpCehiHzreSzNTczkc9d"?>
<x:xmpmeta xmlns:x="adobe:ns:meta/" x:xmptk="Adobe XMP Core 5.6-c138 79.159824, 2016/09/14-01:09:01        ">
   <rdf:RDF xmlns:rdf="http://www.w3.org/1999/02/22-rdf-syntax-ns#">
      <rdf:Description rdf:about=""/>
   </rdf:RDF>
</x:xmpmeta>
                                                                                                    
                                                                                                    
                                                                                                    
                                                                                                    
                                                                                                    
                                                                                                    
                                                                                                    
                                                                                                    
                                                                                                    
                                                                                                    
                                                                                                    
                                                                                                    
                                                                                                    
                                                                                                    
                                                                                                    
                                                                                                    
                                                                                                    
                                                                                                    
                                                                                                    
                                                                                                    
                           
<?xpacket end="w"?></metadata>
<defs>
    <style>
      .cls-1 {
        fill: #9e9e9e;
        fill-rule: evenodd;
      }
    </style>
  </defs>
  <path id="icon" class="cls-1" d="M578.356,1354h2.649v11.06a5.524,5.524,0,0,1-.374,2.09,4.359,4.359,0,0,1-1.04,1.55,4.483,4.483,0,0,1-1.582.95,5.849,5.849,0,0,1-2,.33,6.763,6.763,0,0,1-2.012-.28,4.106,4.106,0,0,1-1.583-.86,3.967,3.967,0,0,1-1.036-1.48,5.33,5.33,0,0,1-.372-2.08h2.649a3.406,3.406,0,0,0,.174,1.16,2,2,0,0,0,.483.78,1.967,1.967,0,0,0,.741.44,3.183,3.183,0,0,0,.956.14,2.427,2.427,0,0,0,.946-0.18,2.063,2.063,0,0,0,.742-0.53,2.426,2.426,0,0,0,.484-0.85,3.694,3.694,0,0,0,.173-1.18V1354Zm14.856,11.77a2.273,2.273,0,0,0-.144-0.84,1.671,1.671,0,0,0-.523-0.68,4.347,4.347,0,0,0-1.049-.59,16.681,16.681,0,0,0-1.715-.6,17.463,17.463,0,0,1-2.117-.75,7.47,7.47,0,0,1-1.671-1,4.207,4.207,0,0,1-1.1-1.3,3.5,3.5,0,0,1-.4-1.69,3.7,3.7,0,0,1,.414-1.73,4.122,4.122,0,0,1,1.163-1.36,5.439,5.439,0,0,1,1.8-.9,7.693,7.693,0,0,1,2.316-.32,7.155,7.155,0,0,1,2.438.38,5.338,5.338,0,0,1,1.825,1.03,4.483,4.483,0,0,1,1.142,1.51,4.287,4.287,0,0,1,.4,1.83h-2.779a2.913,2.913,0,0,0-.182-1.04,2.134,2.134,0,0,0-.557-0.82,2.635,2.635,0,0,0-.949-0.54,4.23,4.23,0,0,0-1.357-.19,4.415,4.415,0,0,0-1.279.16,2.51,2.51,0,0,0-.9.44,1.816,1.816,0,0,0-.53.69,2.133,2.133,0,0,0-.17.85,1.687,1.687,0,0,0,.844,1.44,8.765,8.765,0,0,0,2.575,1.07,14.917,14.917,0,0,1,2.349.86,6.526,6.526,0,0,1,1.649,1.06,3.827,3.827,0,0,1,.976,1.33,4.229,4.229,0,0,1,.32,1.68,3.732,3.732,0,0,1-1.55,3.1,5.457,5.457,0,0,1-1.8.84,8.664,8.664,0,0,1-2.36.29,8.823,8.823,0,0,1-2.283-.3,6.482,6.482,0,0,1-2.019-.92,4.889,4.889,0,0,1-1.44-1.53,4.146,4.146,0,0,1-.545-2.16h2.79a2.811,2.811,0,0,0,.27,1.27,2.356,2.356,0,0,0,.74.86,2.993,2.993,0,0,0,1.108.49,5.509,5.509,0,0,0,1.379.16,3.535,3.535,0,0,0,2.19-.57A1.829,1.829,0,0,0,593.212,1365.77ZM584.5,1386a23.5,23.5,0,1,1,23.5-23.5A23.525,23.525,0,0,1,584.5,1386Zm0-46a22.5,22.5,0,1,0,22.5,22.5A22.524,22.524,0,0,0,584.5,1340Z" transform="translate(-561 -1339)"/>
</svg>
